PathFileType	4	(X/Y/Z)	/Users/itak/Documents/Research/Walk-IL/dataset/trc/00190_00008.trc
DataRate	CameraRate	NumFrames	NumMarkers	Units	OrigDataRate	OrigDataStartFrame	OrigNumFrames
100.000000	100.000000	4	53	mm	100.000000	576	769
Frame#	Time	RPSI			LPSI			L3			STRN			T10			C7			CLAV			RBAK			LBAK			LSHO			LUPA			LAEL			LAOL			LWTS			LWPS			LFRA			LIFD			LHPS			LHTS			RSHO			RUPA			RAEL			RAOL			RWTS			RWPS			RFRA			RIFD			RHTS			RHPS			RBHD			LFHD			RFHD			LBHD			LHIP			RHIP			RASI			LASI			LKNE			LTHI			LANK			LTIP			LTOE			LMT1			LMT5			LHEE			RKNE			RTHI			RANK			RTIP			RTOE			RMT1			RMT5			RHEE			
		X1	Y1	Z1	X2	Y2	Z2	X3	Y3	Z3	X4	Y4	Z4	X5	Y5	Z5	X6	Y6	Z6	X7	Y7	Z7	X8	Y8	Z8	X9	Y9	Z9	X10	Y10	Z10	X11	Y11	Z11	X12	Y12	Z12	X13	Y13	Z13	X14	Y14	Z14	X15	Y15	Z15	X16	Y16	Z16	X17	Y17	Z17	X18	Y18	Z18	X19	Y19	Z19	X20	Y20	Z20	X21	Y21	Z21	X22	Y22	Z22	X23	Y23	Z23	X24	Y24	Z24	X25	Y25	Z25	X26	Y26	Z26	X27	Y27	Z27	X28	Y28	Z28	X29	Y29	Z29	X30	Y30	Z30	X31	Y31	Z31	X32	Y32	Z32	X33	Y33	Z33	X34	Y34	Z34	X35	Y35	Z35	X36	Y36	Z36	X37	Y37	Z37	X38	Y38	Z38	X39	Y39	Z39	X40	Y40	Z40	X41	Y41	Z41	X42	Y42	Z42	X43	Y43	Z43	X44	Y44	Z44	X45	Y45	Z45	X46	Y46	Z46	X47	Y47	Z47	X48	Y48	Z48	X49	Y49	Z49	X50	Y50	Z50	X51	Y51	Z51	X52	Y52	Z52	X53	Y53	Z53	

577	5.76	861.3363647460938	1041.25	-124.0174179077148	983.026123046875	1048.308959960938	-135.1343841552734	916.16748046875	1083.487670898438	-128.2403411865234	942.7510986328125	1296.813110351562	128.6205902099609	907.6404418945312	1243.296630859375	-165.3557281494141	919.1148071289062	1512.592651367188	-100.2510528564453	944.9298095703125	1410.641845703125	98.78959655761719	808.742919921875	1334.821533203125	-154.9737548828125	1017.061462402344	1492.882690429688	-123.1779708862305	1104.998291015625	1484.353271484375	-59.72878646850586	1174.905151367188	1357.05615234375	-111.485237121582	1209.317504882812	1144.817626953125	-111.834846496582	1126.001220703125	1118.007446289062	-130.9424285888672	1246.674926757812	930.8242797851562	25.28026008605957	1256.694458007812	899.0055541992188	-62.96478271484375	1238.795654296875	1037.113159179688	-95.06405639648438	1250.687866210938	755.6316528320312	72.19943237304688	1269.397705078125	833.9332885742188	-32.79348754882812	1279.711059570312	856.4178466796875	35.96190643310547	750.0432739257812	1488.056884765625	-17.41281318664551	680.2046508789062	1420.478515625	-30.80190277099609	631.8742065429688	1126.0263671875	-39.46760177612305	729.4959106445312	1124.823852539062	-57.7074089050293	705.2686157226562	946.7476806640625	147.7179260253906	654.837890625	901.9797973632812	87.22342681884766	626.8234252929688	1055.337768554688	2.161141395568848	764.063232421875	778.0890502929688	210.5542297363281	716.0218505859375	865.1516723632812	199.2788848876953	677.5934448242188	831.0779418945312	136.9644012451172	850.7149047851562	1675.432373046875	-11.2146692276001	976.44970703125	1696.839233398438	165.1746978759766	849.381591796875	1683.00537109375	164.1286773681641	986.6923217773438	1699.636474609375	-14.89921188354492	1117.514404296875	1000.875793457031	-42.06484222412109	755.2029418945312	993.4684448242188	42.39685821533203	813.8870239257812	1027.54638671875	119.3341598510742	1068.176513671875	1040.920654296875	85.83657073974609	1155.361450195312	528.9005737304688	165.4837036132812	1160.879516601562	666.0497436523438	107.6384506225586	1195.27294921875	64.97200012207031	17.69950485229492	1188.427734375	308.2152709960938	93.95557403564453	1189.06298828125	68.28667449951172	231.6885070800781	1137.941528320312	64.20555877685547	189.5569610595703	1240.013793945312	50.34195327758789	120.0488815307617	1123.359741210938	69.54138946533203	-26.5878849029541	862.1060180664062	495.4063110351562	32.19498825073242	787.702392578125	756.9183349609375	90.75769805908203	926.0128173828125	32.22695159912109	-108.9643173217773	902.2203369140625	376.825927734375	28.19988441467285	987.8973388671875	38.27646636962891	108.7073287963867	1024.792236328125	39.95299911499023	49.21047210693359	904.0308227539062	32.2490348815918	6.728633880615234	986.1411743164062	33.37004852294922	-166.6822814941406	
578	5.77	864.6088256835938	1040.45166015625	-117.9838562011719	986.40283203125	1047.399658203125	-127.3360900878906	919.37841796875	1082.593872070312	-121.3921508789062	942.4917602539062	1295.9755859375	135.6893768310547	911.2030639648438	1242.528198242188	-158.6693267822266	921.7903442382812	1511.822631835938	-93.39804840087891	945.1102294921875	1409.805297851562	105.9205169677734	812.1759643554688	1334.053833007812	-149.5922546386719	1019.980163574219	1492.070922851562	-115.1488265991211	1107.106201171875	1483.515014648438	-50.63087844848633	1177.682373046875	1356.318481445312	-101.6301193237305	1212.4716796875	1144.260131835938	-101.979377746582	1129.374389648438	1117.300537109375	-121.8765411376953	1249.040893554688	929.69140625	34.42565155029297	1259.891967773438	898.3678588867188	-53.94007110595703	1241.985961914062	1036.670043945312	-85.43595123291016	1252.865478515625	754.015380859375	80.04338073730469	1272.462158203125	833.1456298828125	-24.0696964263916	1282.102416992188	855.2138061523438	44.92644119262695	751.6346435546875	1487.222534179688	-12.62087345123291	681.9700317382812	1419.58935546875	-26.79541397094727	633.7037353515625	1125.130493164062	-35.91041946411133	731.474365234375	1124.023071289062	-53.41167831420898	705.74755859375	945.6473388671875	151.5483245849609	655.8197631835938	900.989990234375	90.68632507324219	628.266357421875	1054.388061523438	5.557849407196045	764.2366943359375	776.8480224609375	214.4644012451172	716.2652587890625	863.9406127929688	203.0674133300781	679.1536254882812	829.8120727539062	140.6540222167969	852.3955688476562	1674.8017578125	-4.502468109130859	976.9481201171875	1695.677856445312	172.7938079833984	849.8544311523438	1681.978149414062	170.8477478027344	988.3768920898438	1698.852416992188	-7.226452827453613	1119.540893554688	1000.261657714844	-32.17750930786133	755.88427734375	992.9636840820312	47.00139999389648	813.5277099609375	1026.777709960938	124.8514633178711	1068.397338867188	1040.364501953125	94.99917602539062	1153.968017578125	529.6382446289062	179.0072937011719	1160.564453125	666.2420654296875	120.5388870239258	1200.032836914062	61.53914642333984	46.94443130493164	1190.119506835938	307.117431640625	115.1294326782227	1187.796142578125	71.39029693603516	260.4684143066406	1137.85888671875	65.80496978759766	217.0315704345703	1241.913330078125	50.19019317626953	150.9130859375	1129.29248046875	64.29557037353516	0.6249467134475708	862.4796142578125	494.7976989746094	35.11005020141602	787.787353515625	756.0508422851562	94.299072265625	926.1983032226562	32.42996215820312	-108.8945770263672	902.650634765625	376.1443786621094	30.70769500732422	987.927001953125	38.16074371337891	108.7968063354492	1024.802368164062	39.84896087646484	49.29744720458984	904.03515625	32.29722595214844	6.747710704803467	986.3580322265625	33.58930206298828	-166.6042022705078	
579	5.78	867.9148559570312	1039.630737304688	-111.8954544067383	989.7906494140625	1046.454345703125	-119.454963684082	922.6217041015625	1081.6787109375	-114.4924774169922	942.239501953125	1295.090698242188	142.7731170654297	914.7819213867188	1241.720581054688	-151.9254913330078	924.4888916015625	1511.02880859375	-86.51347351074219	945.308349609375	1408.920166015625	113.0724868774414	815.6348266601562	1333.248413085938	-144.1422882080078	1022.892517089844	1491.212524414062	-107.0617980957031	1109.201782226562	1482.624389648438	-41.52276611328125	1180.403076171875	1355.511474609375	-91.77742767333984	1215.491821289062	1143.6142578125	-92.16558837890625	1132.60693359375	1116.534301757812	-112.8231735229492	1251.284301757812	928.45556640625	43.48451232910156	1262.917846679688	897.6295166015625	-44.99433517456055	1245.027221679688	1036.1240234375	-75.86582946777344	1254.92724609375	752.2289428710938	87.68157958984375	1275.371948242188	832.2664794921875	-15.43168544769287	1284.36376953125	853.9098510742188	53.79093551635742	753.2595825195312	1486.344482421875	-7.78269100189209	683.7802124023438	1418.6572265625	-22.74492454528809	635.540771484375	1124.212158203125	-32.33755493164062	733.4713134765625	1123.164916992188	-49.04451751708984	706.1070556640625	944.3997802734375	155.2964019775391	656.6631469726562	899.8915405273438	94.06843566894531	629.7211303710938	1053.42822265625	8.970148086547852	764.2486572265625	775.3799438476562	218.1630859375	716.3598022460938	862.527099609375	206.7094268798828	680.7817993164062	828.3674926757812	144.2259368896484	854.0613403320312	1674.119506835938	2.233025550842285	977.4253540039062	1694.48828125	180.4284210205078	850.3084106445312	1680.903930664062	177.5652923583984	990.0410766601562	1698.042846679688	0.475562185049057	1121.540283203125	999.607177734375	-22.28413772583008	756.6150512695312	992.4265747070312	51.60795211791992	813.1661987304688	1025.987060546875	130.2456359863281	1068.620971679688	1039.738403320312	104.1961898803711	1152.58837890625	530.2954711914062	192.2356719970703	1160.254150390625	666.3784790039062	133.1832122802734	1203.873657226562	58.56742095947266	76.02468872070312	1191.372802734375	306.2138366699219	136.0715484619141	1185.819091796875	74.77813720703125	288.7290649414062	1137.038208007812	67.76106262207031	244.1023101806641	1242.925170898438	50.42526626586914	181.3835296630859	1134.311645507812	59.50717544555664	27.82412338256836	862.9140625	494.1500854492188	38.21269989013672	787.9017333984375	755.1763305664062	97.92256164550781	926.3909912109375	32.63698577880859	-108.8240356445312	903.119140625	375.3970336914062	33.38760757446289	987.965087890625	38.04999542236328	108.8903045654297	1024.825805664062	39.73616409301758	49.40126037597656	904.0482788085938	32.36079025268555	6.7734694480896	986.6279296875	33.85396194458008	-166.5255279541016	
580	5.79	871.2595825195312	1038.799438476562	-105.7571716308594	993.1962280273438	1045.49560546875	-111.4908142089844	925.9049072265625	1080.755249023438	-107.545539855957	941.997802734375	1294.164672851562	149.8735656738281	918.3756713867188	1240.880981445312	-145.1182403564453	927.2119750976562	1510.2216796875	-79.59326934814453	945.5306396484375	1407.996215820312	120.2552185058594	819.112548828125	1332.41796875	-138.6156768798828	1025.7978515625	1490.314819335938	-98.90884399414062	1111.286010742188	1481.689697265625	-32.39532470703125	1183.070556640625	1354.650024414062	-81.92852020263672	1218.375610351562	1142.891479492188	-82.39617919921875	1135.699096679688	1115.718627929688	-103.7860717773438	1253.400512695312	927.1281127929688	52.46279144287109	1265.765625	896.8013305664062	-36.12692260742188	1247.920776367188	1035.479614257812	-66.3544921875	1256.881103515625	750.2815551757812	95.12923431396484	1278.114135742188	831.3034057617188	-6.87087869644165	1286.495727539062	852.5267944335938	62.55869674682617	754.9177856445312	1485.439331054688	-2.888185739517212	685.633544921875	1417.7021484375	-18.64363861083984	637.396728515625	1123.283447265625	-28.73996734619141	735.4796752929688	1122.259887695312	-44.60844802856445	706.350341796875	943.0226440429688	158.9771270751953	657.3713989257812	898.698974609375	97.38514709472656	631.187744140625	1052.46923828125	12.40129947662354	764.0948486328125	773.7003173828125	221.6719970703125	716.3046875	860.9293823242188	210.2198944091797	682.45703125	826.7642822265625	147.6997680664062	855.714599609375	1673.389526367188	8.996945381164551	977.879638671875	1693.27587890625	188.0855407714844	850.7425537109375	1679.7919921875	184.283935546875	991.6885986328125	1697.21142578125	8.214524269104004	1123.51806640625	998.9246215820312	-12.38066291809082	757.445068359375	991.8253784179688	56.21056365966797	812.8110961914062	1025.2060546875	135.4600982666016	1068.8251953125	1039.042602539062	113.414176940918	1151.227172851562	530.8687133789062	205.1801147460938	1159.97265625	666.4551391601562	145.5396881103516	1206.820678710938	56.03823471069336	104.8908157348633	1192.199096679688	305.4923400878906	156.7638092041016	1183.151611328125	78.43659210205078	316.4484558105469	1135.512084960938	70.06057739257812	270.7388305664062	1243.082763671875	51.03064346313477	211.4286346435547	1138.461181640625	55.22143936157227	54.92496871948242	863.4086303710938	493.4595642089844	41.515380859375	788.0458984375	754.2977905273438	101.6241149902344	926.5968017578125	32.85837173461914	-108.7518920898438	903.6304931640625	374.5745544433594	36.24442672729492	988.0090942382812	37.94187927246094	108.9911651611328	1024.86279296875	39.61068344116211	49.52502059936523	904.0751953125	32.43927001953125	6.808032035827637	986.9322509765625	34.16960906982422	-166.4458770751953	
